HIERARCHY
ROOT Hips
{
	OFFSET 0.000000 0.000000 0.000000
	CHANNELS 6 Xposition Yposition Zposition Xrotation Yrotation Zrotation
	JOINT LeftUpLeg_virtual
	{
		OFFSET 0.000000 0.000000 0.000000
		CHANNELS 3 Xrotation Yrotation Zrotation
		JOINT LeftUpLeg
		{
			OFFSET 11.394100 -6.187798 -0.413800
			CHANNELS 3 Xrotation Yrotation Zrotation
			JOINT LeftLeg
			{
				OFFSET 0.430247 -32.302673 3.732800
				CHANNELS 3 Xrotation Yrotation Zrotation
				JOINT LeftFoot
				{
					OFFSET -0.430247 -48.264931 -6.423300
					CHANNELS 3 Xrotation Yrotation Zrotation
					JOINT LeftToeBase
					{
						OFFSET 4.230900 -16.068199 23.438400
						CHANNELS 3 Xrotation Yrotation Zrotation
						JOINT LeftToe_End
						{
							OFFSET 4.510700 0.695400 19.974600
							CHANNELS 3 Xrotation Yrotation Zrotation
							End Site
							{
								OFFSET 0 0 0
							}
						}
					}
				}
			}
		}
	}
	JOINT RightUpLeg_virtual
	{
		OFFSET 0.000000 0.000000 0.000000
		CHANNELS 3 Xrotation Yrotation Zrotation
		JOINT RightUpLeg
		{
			OFFSET -11.333700 -6.187798 -0.413800
			CHANNELS 3 Xrotation Yrotation Zrotation
			JOINT RightLeg
			{
				OFFSET -0.430392 -32.302628 3.733000
				CHANNELS 3 Xrotation Yrotation Zrotation
				JOINT RightFoot
				{
					OFFSET 0.430392 -48.264973 -6.423500
					CHANNELS 3 Xrotation Yrotation Zrotation
					JOINT RightToeBase
					{
						OFFSET -4.230900 -16.068199 23.438400
						CHANNELS 3 Xrotation Yrotation Zrotation
						JOINT RightToe_End
						{
							OFFSET -4.510700 0.695400 19.974600
							CHANNELS 3 Xrotation Yrotation Zrotation
							End Site
							{
								OFFSET 0 0 0
							}
						}
					}
				}
			}
		}
	}
	JOINT Spine_virtual
	{
		OFFSET 0.000000 0.000000 0.000000
		CHANNELS 3 Xrotation Yrotation Zrotation
		JOINT Spine
		{
			OFFSET -0.002400 12.777504 0.315300
			CHANNELS 3 Xrotation Yrotation Zrotation
			JOINT Spine1
			{
				OFFSET -0.002067 5.816869 0.032633
				CHANNELS 3 Xrotation Yrotation Zrotation
				JOINT Spine1_split
				{
					OFFSET -0.002067 5.816869 0.032633
					CHANNELS 3 Xrotation Yrotation Zrotation
					JOINT Spine2
					{
						OFFSET -0.002067 5.816869 0.032633
						CHANNELS 3 Xrotation Yrotation Zrotation
						JOINT Neck_virtual
						{
							OFFSET 0.000000 0.000000 0.000000
							CHANNELS 3 Xrotation Yrotation Zrotation
							JOINT Neck
							{
								OFFSET -0.003700 21.199493 -0.826900
								CHANNELS 3 Xrotation Yrotation Zrotation
								JOINT Head
								{
									OFFSET 0.000000 20.442200 4.834800
									CHANNELS 3 Xrotation Yrotation Zrotation
									JOINT HeadTop_End
									{
										OFFSET 0.000000 34.668396 4.968400
										CHANNELS 3 Xrotation Yrotation Zrotation
										End Site
										{
											OFFSET 0 0 0
										}
									}
								}
							}
						}
						JOINT LeftShoulder_virtual
						{
							OFFSET 0.000000 0.000000 0.000000
							CHANNELS 3 Xrotation Yrotation Zrotation
							JOINT LeftShoulder
							{
								OFFSET 3.288150 8.794197 -1.372250
								CHANNELS 3 Xrotation Yrotation Zrotation
								JOINT LeftShoulder_split
								{
									OFFSET 3.288150 8.794197 -1.372250
									CHANNELS 3 Xrotation Yrotation Zrotation
									JOINT LeftArm
									{
										OFFSET 11.953299 -2.279007 -0.146200
										CHANNELS 3 Xrotation Yrotation Zrotation
										JOINT LeftForeArm
										{
											OFFSET 18.448900 0.000000 0.000000
											CHANNELS 3 Xrotation Yrotation Zrotation
											JOINT LeftHand
											{
												OFFSET 29.527798 0.000000 0.000000
												CHANNELS 3 Xrotation Yrotation Zrotation
												End Site
												{
													OFFSET 0 0 0
												}
											}
										}
									}
								}
							}
						}
						JOINT RightShoulder_virtual
						{
							OFFSET 0.000000 0.000000 0.000000
							CHANNELS 3 Xrotation Yrotation Zrotation
							JOINT RightShoulder
							{
								OFFSET -3.249400 8.794197 -1.372250
								CHANNELS 3 Xrotation Yrotation Zrotation
								JOINT RightShoulder_split
								{
									OFFSET -3.249400 8.794197 -1.372250
									CHANNELS 3 Xrotation Yrotation Zrotation
									JOINT RightArm
									{
										OFFSET -11.953299 -2.279007 -0.146200
										CHANNELS 3 Xrotation Yrotation Zrotation
										JOINT RightForeArm
										{
											OFFSET -18.448900 0.000000 0.000000
											CHANNELS 3 Xrotation Yrotation Zrotation
											JOINT RightHand
											{
												OFFSET -29.527802 0.000000 0.000000
												CHANNELS 3 Xrotation Yrotation Zrotation
												End Site
												{
													OFFSET 0 0 0
												}
											}
										}
									}
								}
							}
						}
					}
				}
			}
		}
	}
}
MOTION
Frames: 11
Frame Time: 0.03333333
-0.073812 85.293709 -0.143902 0.000000 0.000000 0.000000 -5.064989 -42.553940 0.275068 -38.947248 5.286943 17.881970 58.824103 -5.658647 4.385019 -17.445029 -8.501396 -15.885032 -1.594206 0.000015 0.000003 0.000000 0.000000 0.000000 -5.064989 -42.553940 0.275068 -29.994571 -7.144702 -28.960412 58.895184 -10.017889 -7.808259 -19.902085 -5.245080 22.366329 -1.421723 -0.000014 -0.000002 0.000000 0.000000 0.000000 -5.064989 -42.553940 0.275068 9.457941 7.226620 -1.662789 2.187716 0.989897 -0.914785 0.000000 0.000000 0.000000 0.000000 0.000000 0.000000 2.202830 0.982764 -0.893558 0.084653 13.220555 4.538678 8.920924 20.138135 -4.130233 0.000000 0.000000 0.000000 2.202830 0.982764 -0.893558 1.117176 3.546355 -8.633310 0.000000 0.000000 0.000000 -53.487030 4.935509 -51.502987 -179.999896 -73.641932 -179.999896 0.000000 0.000000 0.000000 2.202830 0.982764 -0.893558 3.036123 13.027204 -5.371405 0.000000 0.000000 0.000000 -48.713736 27.172832 83.457098 179.999991 74.011698 -179.999991 0.000000 0.000000 0.000000 
-0.079603 85.356766 -0.066406 0.000000 0.000000 0.000000 -4.919889 -42.560825 0.178237 -39.004912 5.228258 18.356536 58.725488 -5.585251 4.032659 -17.454408 -8.751664 -15.793563 -1.594206 0.000015 0.000003 0.000000 0.000000 0.000000 -4.919889 -42.560825 0.178237 -30.074624 -7.552918 -29.108494 58.710899 -9.530832 -7.645905 -19.897304 -5.233794 22.086376 -1.421723 -0.000016 -0.000003 0.000000 0.000000 0.000000 -4.919889 -42.560825 0.178237 9.414115 7.287459 -1.692770 2.160459 1.014514 -0.917776 0.000000 0.000000 0.000000 0.000000 0.000000 0.000000 2.175228 1.007286 -0.896830 -0.002262 13.274976 4.469521 8.607462 20.275410 -3.937010 0.000000 0.000000 0.000000 2.175228 1.007286 -0.896830 1.001847 3.254857 -7.755000 0.000000 0.000000 0.000000 -53.008948 4.373919 -50.549287 179.999937 -73.314376 179.999964 0.000000 0.000000 0.000000 2.175228 1.007286 -0.896830 2.949116 12.677385 -5.252451 0.000000 0.000000 0.000000 -49.612701 28.281045 83.025874 179.999991 74.211330 -179.999991 0.000000 0.000000 0.000000 
-0.086731 85.470314 0.099464 0.000000 0.000000 0.000000 -4.747546 -42.757391 0.132107 -38.963647 5.411440 18.848467 58.595995 -6.095545 3.673749 -17.474884 -8.517232 -15.433909 -1.594206 0.000010 0.000003 0.000000 0.000000 0.000000 -4.747546 -42.757391 0.132107 -29.944922 -7.592648 -29.271435 58.457759 -8.725899 -7.146961 -19.845591 -5.543528 21.629327 -1.421723 -0.000016 -0.000003 0.000000 0.000000 0.000000 -4.747546 -42.757391 0.132107 9.332811 7.249570 -1.758928 2.116462 1.001622 -0.938756 0.000000 0.000000 0.000000 0.000000 0.000000 0.000000 2.131453 0.993927 -0.918456 -0.160922 13.383833 4.389430 7.954198 20.680834 -3.679495 0.000000 0.000000 0.000000 2.131453 0.993927 -0.918456 0.882102 2.965736 -6.781120 0.000000 0.000000 0.000000 -52.480308 4.371684 -50.014736 -179.999855 -72.505620 -179.999855 0.000000 0.000000 0.000000 2.131453 0.993927 -0.918456 2.865107 12.349324 -5.101036 0.000000 0.000000 0.000000 -50.475156 29.672889 82.603830 179.999950 74.347798 -179.999937 0.000000 0.000000 0.000000 
-0.070180 85.656845 0.379921 0.000000 0.000000 0.000000 -4.531027 -43.260007 0.166116 -38.774748 5.983335 19.395092 58.349097 -6.942961 3.303504 -17.541282 -7.930042 -14.857021 -1.594206 0.000014 0.000003 0.000000 0.000000 0.000000 -4.531027 -43.260007 0.166116 -29.729061 -7.372237 -29.468335 58.007028 -7.670828 -6.511547 -19.689607 -5.950923 21.091262 -1.421724 -0.000015 -0.000003 0.000000 0.000000 0.000000 -4.531027 -43.260007 0.166116 9.202289 7.150988 -1.878647 2.049151 0.967111 -0.982518 0.000000 0.000000 0.000000 0.000000 0.000000 0.000000 2.064606 0.958713 -0.963080 -0.397995 13.551862 4.310265 6.833771 21.403038 -3.318827 0.000000 0.000000 0.000000 2.064606 0.958713 -0.963080 0.760001 2.691017 -5.709709 0.000000 0.000000 0.000000 -51.890986 4.777281 -49.666783 -179.999882 -71.344905 -179.999896 0.000000 0.000000 0.000000 2.064606 0.958713 -0.963080 2.789644 12.065808 -4.922060 0.000000 0.000000 0.000000 -51.267963 31.359065 82.088109 -179.999896 74.448823 179.999896 0.000000 0.000000 0.000000 
-0.012629 85.908852 0.783302 0.000000 0.000000 0.000000 -4.274224 -44.232404 0.267601 -38.379294 6.909985 20.039434 57.979755 -7.896210 2.855834 -17.706448 -7.071344 -14.140203 -1.594206 0.000008 0.000003 0.000000 0.000000 0.000000 -4.274224 -44.232404 0.267601 -29.578042 -6.935305 -29.669246 57.321768 -6.534009 -5.927429 -19.392244 -6.151069 20.583572 -1.421723 -0.000017 -0.000004 0.000000 0.000000 0.000000 -4.274224 -44.232404 0.267601 9.018017 7.050280 -2.047874 1.956325 0.934489 -1.039519 0.000000 0.000000 0.000000 0.000000 0.000000 0.000000 1.971918 0.925415 -1.021210 -0.684144 13.764213 4.208533 5.252511 22.328098 -2.839948 0.000000 0.000000 0.000000 1.971918 0.925415 -1.021210 0.637436 2.468928 -4.579883 0.000000 0.000000 0.000000 -51.272936 5.449265 -49.266933 -179.999909 -69.923283 -179.999882 0.000000 0.000000 0.000000 1.971918 0.925415 -1.021210 2.719011 11.806945 -4.709300 0.000000 0.000000 0.000000 -52.079455 33.374825 81.488788 179.999827 74.627432 -179.999827 0.000000 0.000000 0.000000 
0.106777 86.190536 1.314129 0.000000 0.000000 0.000000 -4.061712 -45.809553 0.413726 -37.692006 8.184486 20.696665 57.553175 -8.937678 2.327757 -18.033656 -5.784357 -13.276622 -1.594206 0.000010 0.000003 0.000000 0.000000 0.000000 -4.061712 -45.809553 0.413726 -29.515269 -6.128103 -29.822242 56.477605 -5.330062 -5.465709 -18.934644 -6.155951 20.158301 -1.421723 -0.000017 -0.000002 0.000000 0.000000 0.000000 -4.061712 -45.809553 0.413726 8.832596 7.087933 -2.247577 1.863549 0.958203 -1.094341 0.000000 0.000000 0.000000 0.000000 0.000000 0.000000 1.878253 0.948837 -1.077121 -1.022866 14.018715 4.028359 3.556166 23.284576 -2.214758 0.000000 0.000000 0.000000 1.878253 0.948837 -1.077121 0.511942 2.340406 -3.391969 0.000000 0.000000 0.000000 -50.648168 6.283249 -48.819491 179.999909 -68.268185 179.999909 0.000000 0.000000 0.000000 1.878253 0.948837 -1.077121 2.639991 11.492016 -4.490693 0.000000 0.000000 0.000000 -53.050807 35.590261 80.947140 179.999868 74.978545 -179.999896 0.000000 0.000000 0.000000 
0.334581 86.533066 1.994213 0.000000 0.000000 0.000000 -3.635421 -48.720518 0.801331 -36.678741 10.163827 21.640080 56.915044 -9.014034 1.644673 -18.649324 -4.784572 -12.651443 -1.594206 0.000010 0.000003 0.000000 0.000000 0.000000 -3.635421 -48.720518 0.801331 -30.051084 -4.662551 -29.601616 55.400604 -4.048676 -5.484353 -18.133966 -5.679514 19.871787 -1.421723 -0.000016 -0.000003 0.000000 0.000000 0.000000 -3.635421 -48.720518 0.801331 8.524763 7.562435 -2.503110 1.723160 1.157222 -1.149283 0.000000 0.000000 0.000000 0.000000 0.000000 0.000000 1.734677 1.147994 -1.132963 -1.501761 14.315640 3.851291 2.019822 24.423787 -1.787590 0.000000 0.000000 0.000000 1.734677 1.147994 -1.132963 0.377424 2.392701 -2.190965 0.000000 0.000000 0.000000 -49.753120 7.092122 -47.553160 -179.999964 -66.469086 -179.999964 0.000000 0.000000 0.000000 1.734677 1.147994 -1.132963 2.536056 11.010402 -4.345443 0.000000 0.000000 0.000000 -54.236005 37.996377 80.791972 179.999950 75.511539 -179.999937 0.000000 0.000000 0.000000 
0.658895 86.951691 2.734871 0.000000 0.000000 0.000000 -2.449261 -53.253202 1.690051 -35.655237 12.809868 22.992167 56.042460 -9.067728 0.736471 -19.457467 -2.966545 -11.942159 -1.594206 0.000012 0.000003 0.000000 0.000000 0.000000 -2.449261 -53.253202 1.690051 -31.818327 -2.947013 -28.413134 54.064369 -2.047823 -6.463340 -16.886330 -5.071514 19.484783 -1.421723 -0.000015 -0.000003 0.000000 0.000000 0.000000 -2.449261 -53.253202 1.690051 7.955266 8.343506 -2.760936 1.492040 1.476187 -1.218452 0.000000 0.000000 0.000000 0.000000 0.000000 0.000000 1.499631 1.466403 -1.201847 -2.301728 14.671062 3.827689 0.603028 26.230455 -2.159938 0.000000 0.000000 0.000000 1.499631 1.466403 -1.201847 0.173059 3.039242 -0.844238 0.000000 0.000000 0.000000 -49.092022 6.962167 -44.601381 -179.999978 -67.375008 -179.999978 0.000000 0.000000 0.000000 1.499631 1.466403 -1.201847 2.392596 10.277365 -4.323735 0.000000 0.000000 0.000000 -56.028267 40.818320 81.349732 -179.999964 76.278542 179.999950 0.000000 0.000000 0.000000 
1.016872 87.362137 3.428646 0.000000 0.000000 0.000000 -0.590733 -58.054791 2.856005 -34.793964 14.777306 24.129281 55.240705 -9.095142 -0.209940 -20.318534 -0.284890 -11.252785 -1.594206 0.000012 0.000003 0.000000 0.000000 0.000000 -0.590733 -58.054791 2.856005 -34.192337 -2.112083 -26.414669 52.635162 0.969726 -8.146174 -15.437069 -4.986889 18.878633 -1.421723 -0.000015 -0.000003 0.000000 0.000000 0.000000 -0.590733 -58.054791 2.856005 7.239697 8.551819 -2.722787 1.243023 1.559118 -1.269403 0.000000 0.000000 0.000000 0.000000 0.000000 0.000000 1.253379 1.547080 -1.250005 -3.329425 15.130599 3.838446 -0.489756 28.792884 -3.531863 0.000000 0.000000 0.000000 1.253379 1.547080 -1.250005 -0.147709 4.417816 0.976167 0.000000 0.000000 0.000000 -52.038535 3.649937 -38.886972 -179.999882 -75.537678 -179.999896 0.000000 0.000000 0.000000 1.253379 1.547080 -1.250005 2.216890 9.379408 -4.261203 0.000000 0.000000 0.000000 -58.586036 44.253694 82.093874 -179.999909 77.091812 179.999882 0.000000 0.000000 0.000000 
1.334465 87.731949 4.080563 0.000000 0.000000 0.000000 0.450728 -60.845688 3.109077 -33.833199 14.994552 24.035343 54.785108 -9.081164 -0.583617 -20.998150 2.503711 -10.663818 -1.594206 0.000012 0.000003 0.000000 0.000000 0.000000 0.450728 -60.845688 3.109077 -35.384311 -3.046484 -25.016558 51.118922 3.642214 -9.723526 -14.274785 -5.009917 18.485970 -1.421723 -0.000016 -0.000002 0.000000 0.000000 0.000000 0.450728 -60.845688 3.109077 6.763149 7.470575 -2.085178 1.133747 1.118254 -1.213906 0.000000 0.000000 0.000000 0.000000 0.000000 0.000000 1.157090 1.102536 -1.190411 -4.105027 15.601211 3.839513 -0.452947 31.309819 -5.558793 0.000000 0.000000 0.000000 1.157090 1.102536 -1.190411 -0.451972 5.530814 3.072951 0.000000 0.000000 0.000000 -54.906190 -3.419242 -30.352674 0.004469 -86.149381 0.004433 0.000000 0.000000 0.000000 1.157090 1.102536 -1.190411 2.045730 8.554604 -3.908732 0.000000 0.000000 0.000000 -60.791436 47.753503 81.586726 -179.999691 77.393502 179.999663 0.000000 0.000000 0.000000 
1.589606 87.891434 4.647575 0.000000 0.000000 0.000000 -0.251971 -60.412832 2.085187 -33.177272 13.933707 22.665769 55.016603 -9.081213 -0.103417 -21.337782 3.881192 -10.224826 -1.594206 0.000007 0.000003 0.000000 0.000000 0.000000 -0.251971 -60.412832 2.085187 -34.818809 -4.827787 -25.571764 50.073797 4.888302 -10.148228 -13.893977 -5.106967 18.499743 -1.421723 -0.000016 -0.000003 0.000000 0.000000 0.000000 -0.251971 -60.412832 2.085187 6.783891 5.394795 -1.155383 1.234915 0.279747 -1.089581 0.000000 0.000000 0.000000 0.000000 0.000000 0.000000 1.272378 0.259568 -1.063162 -4.641444 15.962651 4.087960 0.067241 32.550892 -6.168172 0.000000 0.000000 0.000000 1.272378 0.259568 -1.063162 -0.575365 5.557817 4.730461 0.000000 0.000000 0.000000 -50.960058 -16.908391 -20.058080 0.000005 -59.372526 -0.000009 0.000000 0.000000 0.000000 1.272378 0.259568 -1.063162 1.892295 7.796459 -3.564705 0.000000 0.000000 0.000000 -61.317825 49.911679 79.774383 179.999786 76.737162 -179.999786 0.000000 0.000000 0.000000 
